<svg width="20" height="20" viewBox="0 0 20 20" fill="none" xmlns="http://www.w3.org/2000/svg">
<g clip-path="url(#clip0_8996_42498)">
<path d="M15.484 0H4.51602C2.02189 0 0 2.03125 0 4.53693V15.4631C0 17.9687 2.02189 20 4.51602 20H15.484C17.9781 20 20 17.9687 20 15.4631V4.53693C20 2.03125 17.9781 0 15.484 0Z" fill="#98A2B3"/>
<path d="M12.6463 5.82178H14.0572L10.9748 9.36153L14.601 14.1779H11.7615L9.5377 11.257L6.99277 14.1779H5.58105L8.87793 10.3921L5.39941 5.82178H8.31074L10.3209 8.4919L12.6463 5.82178ZM12.151 13.3294H12.933L7.88613 6.62587H7.04707L12.151 13.3294Z" fill="white"/>
</g>
<defs>
<clipPath id="clip0_8996_42498">
<rect width="20" height="20" fill="white"/>
</clipPath>
</defs>
</svg>
